<?xml version="1.0" encoding="UTF-8" standalone="no"?>
<!DOCTYPE svg PUBLIC "-//W3C//DTD SVG 1.1//EN" "http://www.w3.org/Graphics/SVG/1.1/DTD/svg11.dtd">
<svg width="100%" height="100%" viewBox="0 0 24 24" version="1.1" xmlns="http://www.w3.org/2000/svg" xmlns:xlink="http://www.w3.org/1999/xlink" xml:space="preserve" xmlns:serif="http://www.serif.com/" style="fill-rule:evenodd;clip-rule:evenodd;stroke-linejoin:round;stroke-miterlimit:2;">
    <path d="M18.271,6.43L18.21,0.21C17.639,-0.065 16.953,0.052 16.505,0.5L0.326,15.26C0.118,15.449 -0,15.718 -0,15.999C-0,16.281 0.119,16.55 0.327,16.739L1.65,17.94C2.005,18.263 2.544,18.287 2.926,17.997L7.046,14.869C7.046,14.869 17.7,6.705 18.271,6.43Z" style="fill:rgb(0,117,184);fill-rule:nonzero;"/>
    <g transform="matrix(1,0,0,-1,-0.0223552,23.9952)">
        <path d="M18.271,6.43L18.21,0.21C17.639,-0.065 16.953,0.052 16.505,0.5L0.326,15.26C0.118,15.449 -0,15.718 -0,15.999C-0,16.281 0.119,16.55 0.327,16.739L1.65,17.94C2.005,18.263 2.544,18.287 2.926,17.997L7.046,14.869C7.046,14.869 17.7,6.705 18.271,6.43Z" style="fill:rgb(4,134,210);fill-rule:nonzero;"/>
    </g>
    <path d="M18.186,23.788L23.152,21.412C23.67,21.162 24,20.635 24,20.06L24,3.939C24,3.363 23.669,2.836 23.15,2.587L18.21,0.21" style="fill:rgb(36,170,242);fill-rule:nonzero;"/>
</svg>
